<?xml version="1.0" standalone="no"?>
<!DOCTYPE svg PUBLIC "-//W3C//DTD SVG 20010904//EN"
 "http://www.w3.org/TR/2001/REC-SVG-20010904/DTD/svg10.dtd">
<svg version="1.0" xmlns="http://www.w3.org/2000/svg"
 width="936.000000pt" height="936.000000pt" viewBox="0 0 936.000000 936.000000"
 preserveAspectRatio="xMidYMid meet">
<metadata>
Created by potrace 1.11, written by Peter Selinger 2001-2013
</metadata>
<g transform="translate(0.000000,936.000000) scale(0.100000,-0.100000)"
fill="#000000" stroke="none">
<path d="M0 7671 l0 -50 70 0 c73 0 210 -11 221 -17 4 -2 23 -6 42 -9 207 -33
482 -199 606 -365 14 -19 29 -37 32 -40 8 -7 84 -125 80 -125 -2 0 11 -24 28
-53 17 -29 31 -56 31 -60 0 -5 22 -57 48 -117 47 -108 63 -145 67 -155 1 -3
10 -23 19 -45 17 -38 61 -140 92 -212 8 -18 20 -48 28 -65 8 -18 85 -197 171
-398 86 -201 162 -378 169 -395 8 -16 28 -64 46 -105 18 -41 38 -88 46 -104 8
-16 14 -35 14 -43 0 -7 5 -13 10 -13 6 0 10 -11 10 -25 0 -14 5 -25 10 -25 6
0 10 -6 10 -14 0 -8 14 -45 31 -82 17 -38 35 -78 39 -89 5 -11 47 -108 93
-215 81 -190 98 -230 102 -240 1 -3 12 -27 24 -55 13 -27 31 -70 41 -95 10
-25 29 -70 43 -100 14 -30 37 -84 52 -120 15 -36 38 -90 52 -120 14 -30 33
-76 43 -101 18 -44 40 -96 81 -185 11 -22 19 -43 19 -47 0 -4 14 -37 31 -74
17 -38 35 -77 39 -88 25 -55 176 -408 197 -460 14 -33 36 -84 49 -113 13 -29
24 -55 24 -57 0 -2 11 -28 24 -57 27 -60 58 -130 61 -138 4 -13 123 -289 165
-385 10 -22 32 -74 50 -115 18 -41 38 -88 45 -105 7 -16 34 -79 60 -140 68
-159 70 -163 104 -239 17 -37 31 -74 31 -81 0 -6 11 -24 25 -39 21 -22 28 -25
45 -16 12 6 20 7 20 1 0 -5 9 -7 20 -4 11 3 20 12 20 19 0 8 4 22 10 32 5 9
16 33 24 52 8 19 90 211 181 425 91 215 172 404 179 420 8 17 19 41 24 55 6
14 21 48 33 75 12 28 23 55 24 60 2 9 19 49 55 130 47 105 60 136 60 140 0 2
11 28 24 57 14 30 33 76 44 103 17 43 42 101 82 190 5 11 21 49 36 85 14 36
34 83 44 105 10 22 37 85 60 140 23 55 50 118 60 140 61 138 144 341 142 348
-1 4 3 7 8 7 6 0 10 5 10 11 0 10 220 533 276 657 13 29 24 55 24 57 0 2 11
29 25 59 29 63 43 99 42 106 -1 3 6 19 15 35 8 17 20 41 26 55 9 23 21 51 65
150 8 19 38 91 67 160 28 69 56 132 61 140 5 8 12 22 15 30 3 8 22 53 41 100
19 47 37 91 40 98 3 6 0 12 -6 12 -10 0 -104 40 -144 62 -11 5 -21 8 -22 6 -2
-2 -31 -69 -65 -148 -34 -80 -67 -158 -75 -175 -7 -16 -29 -68 -48 -115 -20
-47 -43 -102 -51 -122 -9 -21 -17 -41 -18 -45 -1 -5 -23 -56 -49 -115 -26 -60
-46 -108 -44 -108 2 0 -10 -28 -27 -62 -17 -35 -36 -79 -43 -99 -15 -41 -139
-340 -160 -384 -13 -27 -36 -83 -40 -95 -1 -3 -9 -23 -19 -45 -10 -22 -38 -89
-63 -150 -25 -60 -53 -128 -63 -150 -10 -22 -41 -96 -69 -165 -29 -69 -56
-134 -61 -145 -24 -54 -52 -121 -54 -130 -2 -5 -13 -32 -25 -60 -13 -27 -35
-81 -51 -120 -15 -38 -35 -83 -44 -100 -9 -16 -16 -38 -16 -47 0 -10 -4 -18
-8 -18 -5 0 -9 -6 -9 -12 0 -7 -10 -34 -22 -60 -11 -27 -31 -69 -42 -95 -12
-27 -22 -54 -22 -60 0 -7 -4 -13 -9 -13 -4 0 -8 -7 -8 -15 0 -8 -4 -23 -9 -33
-9 -15 -22 -49 -25 -62 -9 -34 -39 -58 -42 -32 0 4 -8 24 -17 46 -9 21 -17 40
-17 41 0 5 -178 446 -190 470 -10 21 -123 300 -172 425 -16 41 -33 84 -38 95
-25 55 -74 180 -72 183 2 1 -4 15 -12 30 -8 15 -20 43 -27 62 -7 19 -22 58
-34 85 -12 28 -30 70 -39 95 -29 72 -38 93 -52 125 -8 17 -56 136 -108 265
-52 129 -132 330 -179 445 -47 116 -110 273 -141 350 -31 77 -61 149 -65 160
-25 56 -43 102 -96 235 -31 80 -63 159 -70 175 -7 17 -32 77 -55 135 -23 58
-47 116 -53 130 -6 14 -11 27 -12 30 -1 3 -9 22 -18 44 -9 21 -17 41 -17 43 0
3 -7 19 -14 36 -19 40 -117 279 -120 292 -2 6 -8 22 -14 37 -35 84 -228 562
-247 608 l-21 55 -962 3 -962 2 0 -49z"/>
<path d="M3269 7713 c-3 -22 -7 -82 -13 -213 -4 -80 -9 -183 -12 -230 -2 -47
-6 -134 -9 -195 -12 -267 -26 -550 -30 -635 -3 -41 -7 -131 -10 -200 -3 -69
-8 -131 -10 -137 -2 -7 -1 -13 3 -14 107 -13 104 -15 117 61 18 106 79 315
135 460 98 254 262 491 422 612 20 15 42 33 50 40 29 28 225 135 262 143 6 1
18 5 26 9 19 8 150 47 170 50 8 1 26 5 40 9 14 4 39 9 55 12 17 3 64 12 105
19 42 8 100 17 130 20 30 4 71 8 90 10 115 14 188 20 370 31 476 29 2043 23
2360 -9 25 -2 79 -7 120 -11 41 -3 89 -9 105 -12 17 -2 44 -6 60 -8 209 -23
469 -100 644 -191 69 -35 123 -65 131 -74 3 -3 24 -18 46 -33 23 -15 55 -40
72 -55 17 -15 43 -38 59 -52 104 -92 217 -260 297 -442 38 -87 45 -105 60
-153 9 -27 19 -57 23 -65 3 -8 7 -19 9 -25 1 -5 12 -45 24 -87 11 -43 23 -88
26 -100 15 -68 23 -105 29 -128 2 -8 4 -21 4 -27 1 -11 44 -13 103 -4 3 1 5
16 3 34 -2 17 -7 93 -10 167 -4 74 -8 171 -11 215 -2 44 -6 132 -9 195 -2 63
-7 158 -10 210 -5 98 -14 280 -20 410 -2 41 -6 131 -10 200 -4 69 -7 142 -7
163 l-1 37 -2994 0 c-1646 0 -2993 -3 -2994 -7z"/>
<path d="M5759 6638 c-4 -63 -3 -81 4 -85 4 -2 4 -9 1 -15 -6 -10 -9 -196 -4
-223 1 -5 1 -14 0 -20 -3 -13 -3 -87 0 -100 1 -5 2 -12 0 -15 -5 -15 -4 -110
2 -110 4 0 4 -10 0 -22 -7 -21 -8 -69 -2 -93 1 -5 2 -12 0 -15 -5 -15 -4 -110
2 -110 4 0 4 -10 0 -22 -9 -27 -8 -81 2 -96 3 -6 3 -13 -2 -16 -8 -5 -7 -79 2
-103 3 -7 2 -13 -2 -13 -6 0 -8 -275 -2 -305 1 -5 1 -14 0 -20 -3 -12 -2 -206
0 -220 1 -5 1 -14 0 -20 -1 -5 -2 -28 -2 -50 0 -22 1 -44 2 -50 1 -5 2 -12 0
-15 -5 -15 -4 -110 2 -110 4 0 4 -10 0 -22 -7 -21 -8 -69 -2 -93 1 -5 2 -12 0
-15 -5 -15 -4 -110 2 -110 4 0 4 -10 0 -22 -9 -27 -8 -81 2 -96 3 -6 3 -13 -2
-16 -8 -5 -7 -79 2 -103 3 -7 2 -13 -2 -13 -4 0 -7 -22 -7 -49 0 -27 3 -47 7
-44 5 2 4 -6 0 -19 -4 -13 -6 -45 -5 -73 2 -27 3 -60 3 -72 0 -13 0 -48 0 -78
0 -30 0 -67 0 -82 -1 -16 0 -55 0 -88 1 -77 1 -62 -2 -203 -2 -67 0 -122 4
-122 4 0 5 -6 3 -13 -9 -23 -11 -107 -2 -107 4 0 5 -5 1 -11 -10 -16 -11 -229
-1 -229 5 0 5 -5 2 -10 -4 -6 -8 -92 -10 -193 -5 -271 -21 -415 -62 -557 -35
-121 -95 -229 -173 -308 -75 -77 -85 -85 -159 -130 -69 -43 -136 -69 -236 -92
-79 -19 -98 -22 -225 -35 -36 -4 -68 -9 -71 -11 -12 -7 -3 -89 9 -87 7 2 12
-1 12 -5 0 -4 24 -6 53 -4 28 1 57 3 62 3 6 0 78 -1 160 -1 161 0 177 0 215
-3 14 -2 35 1 48 5 13 4 21 5 19 0 -6 -9 95 -8 111 1 6 4 13 4 15 0 6 -10 89
-9 104 0 7 4 14 4 16 0 6 -10 89 -9 104 0 7 4 14 4 16 0 6 -10 89 -9 104 0 7
4 14 4 16 0 6 -10 89 -9 104 0 7 4 14 4 16 0 6 -10 89 -9 104 0 7 4 14 4 16 0
6 -10 89 -9 104 0 7 4 14 4 16 0 6 -10 89 -9 104 0 7 4 14 4 16 0 6 -10 89 -9
104 0 7 4 14 4 16 0 6 -10 89 -9 104 0 7 4 14 4 16 0 6 -10 89 -9 104 0 7 4
14 4 16 0 6 -10 89 -9 104 0 7 4 14 4 16 0 6 -10 89 -9 104 0 7 4 14 4 16 0 6
-10 89 -9 104 0 7 4 14 4 16 0 6 -10 89 -9 104 0 7 4 14 4 16 0 6 -10 89 -9
104 0 7 4 14 4 16 0 6 -10 89 -9 104 0 7 4 14 4 16 0 6 -10 100 -8 116 1 6 4
11 3 11 -1 0 -10 58 -8 68 2 4 4 7 27 7 51 0 37 -3 44 -20 45 -126 7 -317 39
-357 60 -10 5 -18 7 -18 4 0 -3 -12 0 -27 8 -16 8 -48 25 -73 37 -109 56 -216
153 -280 255 -49 77 -102 213 -114 290 -2 17 -5 30 -6 30 -1 0 -3 14 -5 30 -8
77 -17 165 -22 215 -2 30 -6 926 -8 1990 -1 1064 -3 1938 -4 1943 -1 4 -217 7
-481 7 -377 0 -480 -3 -481 -12z"/>
<path d="M934 5735 c-2 -5 -5 -692 -8 -1525 -2 -833 -6 -1540 -10 -1570 -16
-134 -40 -260 -61 -320 -30 -87 -58 -150 -67 -150 -5 0 -8 -5 -8 -11 0 -33
-137 -176 -223 -232 -59 -39 -175 -91 -224 -101 -82 -17 -144 -27 -193 -32
-30 -3 -64 -7 -75 -9 -11 -2 -30 -4 -42 -4 -21 -1 -23 -6 -23 -50 0 -43 3 -49
23 -53 13 -3 34 -1 45 3 12 5 22 5 22 1 0 -5 15 -7 33 -5 32 4 49 4 97 0 14
-2 35 1 48 5 13 4 21 5 19 0 -6 -9 95 -8 111 1 6 4 13 4 15 0 6 -10 89 -9 104
0 7 4 14 4 16 0 6 -10 89 -9 104 0 7 4 14 4 16 0 6 -10 89 -9 104 0 7 4 14 4
16 0 6 -10 89 -9 104 0 7 4 14 4 16 0 6 -10 89 -9 104 0 7 4 14 4 16 0 6 -10
89 -9 104 0 7 4 14 4 16 0 6 -10 89 -9 104 0 7 4 14 4 16 0 6 -10 89 -9 104 0
7 4 14 4 16 0 6 -10 89 -9 104 0 7 4 14 4 16 0 6 -10 89 -9 104 0 7 4 14 4 16
0 6 -10 89 -9 104 0 7 4 14 4 16 0 6 -10 89 -9 104 0 7 4 14 4 16 0 6 -10 100
-8 116 1 6 4 11 3 11 -1 0 -10 41 -10 56 -1 5 4 8 27 6 52 -3 39 -7 46 -26 47
-11 1 -32 2 -46 4 -14 2 -50 6 -80 9 -316 31 -552 185 -671 436 -52 110 -75
219 -94 445 -2 22 -4 40 -5 40 -6 0 -9 505 -10 1670 l0 1361 -86 0 c-51 0 -88
-4 -90 -11z"/>
</g>
</svg>
