<svg width="234" height="152" viewBox="0 0 234 152" fill="none" xmlns="http://www.w3.org/2000/svg">
<path d="M27.7749 19.5385H27.8506L27.7749 19.3652V19.5385Z" fill="black"/>
<path d="M33.7506 142.082C31.4633 139.724 29.8961 136.733 29.0491 133.118C28.202 129.503 27.7748 123.896 27.7748 116.299V49.3713H23.2393V116.301C23.2393 123.825 22.8121 129.412 21.965 133.064C21.1179 136.719 19.5483 139.726 17.2635 142.084C15.1983 144.223 12.8548 145.773 10.238 146.732C7.61867 147.689 4.20601 148.282 0 148.502V151.045H51.0141V148.502C46.8081 148.282 43.3954 147.691 40.7786 146.732C38.1617 145.773 35.8158 144.223 33.7506 142.082Z" fill="black"/>
<path d="M127.56 43.0073L95.94 118.293L55.9402 19.5386L48.0262 0H0V2.54362C0 2.54362 19.5141 0.161112 27.7748 19.3628L27.8505 19.5361L84.4327 151.043H86.7566L132 44.9162L127.56 43.0073Z" fill="black"/>
<path d="M143.972 116.301C143.972 123.898 143.547 129.505 142.7 133.12C141.85 136.736 140.283 139.724 137.998 142.084C135.933 144.222 133.59 145.773 130.97 146.732C128.351 147.691 124.902 148.282 120.625 148.502V151.045H191.334V148.502C187.128 148.282 183.715 147.691 181.098 146.732C178.481 145.773 176.138 144.225 174.073 142.084C171.786 139.726 170.216 136.716 169.371 133.064C168.522 129.412 168.097 123.827 168.097 116.301V26.7642L143.974 26.7202V116.301H143.972Z" fill="black"/>
<path d="M231.39 0H81.6721L79.6802 40.8323L82.2262 41.0544C83.996 32.2005 86.5421 25.1946 89.8596 20.0292C93.4748 14.4245 98.0641 10.4772 103.637 8.18989C109.205 5.90502 117.671 4.46477 129.032 3.87402C134.344 3.57865 139.321 3.43218 143.969 3.43218H168.092H168.258H168.094C184.472 3.43218 196.089 4.42571 202.951 6.42009C211.065 8.70496 217.241 12.4911 221.484 17.7639C225.726 23.0391 228.843 30.8042 230.835 41.0568L233.379 40.8347L231.39 0Z" fill="black"/>
</svg>
