<svg width="88" height="57" viewBox="0 0 88 57" fill="none" xmlns="http://www.w3.org/2000/svg">
<path d="M10.473 7.36711H10.5016L10.473 7.30176V7.36711Z" fill="white"/>
<path d="M12.7263 53.5745C11.8639 52.6853 11.2729 51.5578 10.9535 50.1946C10.6341 48.8314 10.473 46.717 10.473 43.8526V18.6162H8.76282V43.8535C8.76282 46.6904 8.60173 48.7973 8.28233 50.1743C7.96293 51.5522 7.37107 52.6863 6.50952 53.5754C5.73081 54.3818 4.84716 54.9662 3.86042 55.328C2.87277 55.6888 1.58596 55.9125 0 55.9953V56.9544H19.2359V55.9953C17.6499 55.9125 16.3631 55.6897 15.3763 55.328C14.3896 54.9662 13.505 54.3817 12.7263 53.5745Z" fill="white"/>
<path d="M48.0988 16.2167L36.1761 44.6048L21.0933 7.36739L18.1092 0H0V0.959123C0 0.959123 7.35819 0.0607506 10.473 7.30112L10.5016 7.36647L31.837 56.9537H32.7133L49.7732 16.9365L48.0988 16.2167Z" fill="white"/>
<path d="M54.2871 43.8535C54.2871 46.7179 54.127 48.8322 53.8076 50.1954C53.4873 51.5587 52.8963 52.6853 52.0348 53.5754C51.2561 54.3817 50.3724 54.9662 49.3847 55.328C48.3971 55.6897 47.0965 55.9124 45.4838 55.9953V56.9544H72.146V55.9953C70.56 55.9124 69.2732 55.6897 68.2865 55.328C67.2997 54.9662 66.4161 54.3826 65.6374 53.5754C64.7749 52.6862 64.183 51.5513 63.8646 50.1743C63.5442 48.7973 63.3841 46.6912 63.3841 43.8535V10.0918L54.2881 10.0752V43.8535H54.2871Z" fill="white"/>
<path d="M87.2498 0H30.796L30.0449 15.3966L31.0049 15.4804C31.6722 12.1418 32.6323 9.50011 33.8832 7.5524C35.2464 5.43902 36.9769 3.95063 39.0783 3.08816C41.1779 2.2266 44.37 1.68353 48.6539 1.46078C50.6568 1.3494 52.5336 1.29417 54.2862 1.29417H63.3822H63.4448H63.3831C69.5585 1.29417 73.939 1.6688 76.5264 2.42082C79.5861 3.28237 81.9148 4.71001 83.5146 6.69821C85.1144 8.68734 86.2898 11.6153 87.0409 15.4813L88 15.3975L87.2498 0Z" fill="white"/>
</svg>
